<?xml version="1.0" encoding="utf-8"?>

<!DOCTYPE svg PUBLIC "-//W3C//DTD SVG 1.1//EN" "http://www.w3.org/Graphics/SVG/1.1/DTD/svg11.dtd">
<svg version="1.1" id="Layer_1" xmlns="http://www.w3.org/2000/svg" xmlns:xlink="http://www.w3.org/1999/xlink" x="0px" y="0px"
	 width="100px" height="100px" viewBox="0 0 100 100" enable-background="new 0 0 100 100" xml:space="preserve">
<g>
	<path d="M13.266,81h73.469C89.087,81,91,78.967,91,76.614V26.165c0-0.009,0.003,0.043,0.003,0.034c0-2.348-1.914-4.199-4.267-4.199
		h-0.002H13.612h-0.347C10.913,22,9,23.795,9,26.147v50.467C9,78.967,10.913,81,13.266,81z M38.525,49.122L13,74.442V29.89
		L38.525,49.122z M87,30.186v42.289L62.914,48.581L87,30.186z M59.723,51.02c0.044,0.053,0.082,0.169,0.132,0.22L85.764,77H16.221
		l25.533-25.387l7.481,5.607c0.356,0.268,0.779,0.388,1.203,0.388c0.428,0,0.855-0.144,1.214-0.418L59.723,51.02z M86.047,26
		L50.431,53.202L14.326,26H86.047z"/>
</g>
</svg>
